<mxfile host="app.diagrams.net" agent="Mozilla/5.0 (Windows NT 10.0; Win64; x64; rv:137.0) Gecko/20100101 Firefox/137.0" version="26.2.13">
  <diagram name="Page-1" id="ZvGdhpepFF4PUFGxJiAk">
    <mxGraphModel dx="1835" dy="518" grid="1" gridSize="10" guides="1" tooltips="1" connect="1" arrows="1" fold="1" page="1" pageScale="1" pageWidth="850" pageHeight="1100" math="0" shadow="0">
      <root>
        <mxCell id="0" />
        <mxCell id="1" parent="0" />
        <mxCell id="DSYd0_VyeAYdbBnq_1hp-1" value="" style="whiteSpace=wrap;html=1;aspect=fixed;" vertex="1" parent="1">
          <mxGeometry x="385" y="240" width="100" height="100" as="geometry" />
        </mxCell>
        <mxCell id="DSYd0_VyeAYdbBnq_1hp-6" value="" style="endArrow=none;dashed=1;html=1;dashPattern=1 3;strokeWidth=2;rounded=0;exitX=0.5;exitY=1;exitDx=0;exitDy=0;entryX=0.5;entryY=0;entryDx=0;entryDy=0;" edge="1" parent="1" source="DSYd0_VyeAYdbBnq_1hp-1" target="DSYd0_VyeAYdbBnq_1hp-1">
          <mxGeometry width="50" height="50" relative="1" as="geometry">
            <mxPoint x="395" y="490" as="sourcePoint" />
            <mxPoint x="445" y="440" as="targetPoint" />
          </mxGeometry>
        </mxCell>
        <mxCell id="DSYd0_VyeAYdbBnq_1hp-7" value="" style="endArrow=none;dashed=1;html=1;dashPattern=1 3;strokeWidth=2;rounded=0;entryX=1;entryY=0.5;entryDx=0;entryDy=0;exitX=0;exitY=0.5;exitDx=0;exitDy=0;" edge="1" parent="1" source="DSYd0_VyeAYdbBnq_1hp-1" target="DSYd0_VyeAYdbBnq_1hp-1">
          <mxGeometry width="50" height="50" relative="1" as="geometry">
            <mxPoint x="395" y="490" as="sourcePoint" />
            <mxPoint x="445" y="440" as="targetPoint" />
          </mxGeometry>
        </mxCell>
        <mxCell id="DSYd0_VyeAYdbBnq_1hp-8" value="&lt;div&gt;target&lt;/div&gt;&lt;div&gt;&lt;br&gt;&lt;/div&gt;" style="shape=umlActor;verticalLabelPosition=bottom;verticalAlign=top;html=1;outlineConnect=0;" vertex="1" parent="1">
          <mxGeometry x="610" y="150" width="20" height="40" as="geometry" />
        </mxCell>
        <mxCell id="DSYd0_VyeAYdbBnq_1hp-9" value="seeker POV" style="text;html=1;align=center;verticalAlign=middle;whiteSpace=wrap;rounded=0;" vertex="1" parent="1">
          <mxGeometry x="405" y="340" width="60" height="30" as="geometry" />
        </mxCell>
        <mxCell id="DSYd0_VyeAYdbBnq_1hp-10" value="" style="rounded=1;whiteSpace=wrap;html=1;" vertex="1" parent="1">
          <mxGeometry x="260" y="170" width="70" height="10" as="geometry" />
        </mxCell>
        <mxCell id="DSYd0_VyeAYdbBnq_1hp-11" value="" style="shape=or;whiteSpace=wrap;html=1;" vertex="1" parent="1">
          <mxGeometry x="330" y="170" width="10" height="10" as="geometry" />
        </mxCell>
        <mxCell id="DSYd0_VyeAYdbBnq_1hp-12" value="" style="verticalLabelPosition=bottom;verticalAlign=top;html=1;shape=mxgraph.basic.orthogonal_triangle" vertex="1" parent="1">
          <mxGeometry x="260" y="160" width="10" height="10" as="geometry" />
        </mxCell>
        <mxCell id="DSYd0_VyeAYdbBnq_1hp-16" value="" style="verticalLabelPosition=bottom;verticalAlign=top;html=1;shape=mxgraph.basic.orthogonal_triangle;flipH=0;flipV=1;" vertex="1" parent="1">
          <mxGeometry x="260" y="180" width="10" height="10" as="geometry" />
        </mxCell>
        <mxCell id="DSYd0_VyeAYdbBnq_1hp-19" value="" style="shape=mxgraph.arrows2.wedgeArrowDashed2;html=1;bendable=0;startWidth=44;stepSize=15;rounded=0;" edge="1" parent="1">
          <mxGeometry width="100" height="100" relative="1" as="geometry">
            <mxPoint x="590" y="175.16" as="sourcePoint" />
            <mxPoint x="350" y="175" as="targetPoint" />
          </mxGeometry>
        </mxCell>
        <mxCell id="DSYd0_VyeAYdbBnq_1hp-20" value="missile" style="text;html=1;align=center;verticalAlign=middle;whiteSpace=wrap;rounded=0;" vertex="1" parent="1">
          <mxGeometry x="270" y="130" width="60" height="30" as="geometry" />
        </mxCell>
        <mxCell id="DSYd0_VyeAYdbBnq_1hp-27" value="" style="shape=umlActor;verticalLabelPosition=bottom;verticalAlign=top;html=1;" vertex="1" parent="1">
          <mxGeometry x="460" y="250" width="10" height="10" as="geometry" />
        </mxCell>
        <mxCell id="DSYd0_VyeAYdbBnq_1hp-29" value="" style="endArrow=classic;html=1;rounded=0;" edge="1" parent="1">
          <mxGeometry width="50" height="50" relative="1" as="geometry">
            <mxPoint x="465" y="287" as="sourcePoint" />
            <mxPoint x="465" y="265" as="targetPoint" />
          </mxGeometry>
        </mxCell>
        <mxCell id="DSYd0_VyeAYdbBnq_1hp-32" value="" style="endArrow=classic;html=1;rounded=0;exitX=0.7;exitY=0.9;exitDx=0;exitDy=0;exitPerimeter=0;" edge="1" parent="1" source="DSYd0_VyeAYdbBnq_1hp-11">
          <mxGeometry width="50" height="50" relative="1" as="geometry">
            <mxPoint x="435" y="180" as="sourcePoint" />
            <mxPoint x="380" y="230" as="targetPoint" />
          </mxGeometry>
        </mxCell>
        <mxCell id="DSYd0_VyeAYdbBnq_1hp-33" value="x" style="text;html=1;align=center;verticalAlign=middle;whiteSpace=wrap;rounded=0;fontSize=8;" vertex="1" parent="1">
          <mxGeometry x="470" y="288" width="20" height="10" as="geometry" />
        </mxCell>
        <mxCell id="DSYd0_VyeAYdbBnq_1hp-34" value="y" style="text;html=1;align=center;verticalAlign=middle;whiteSpace=wrap;rounded=0;fontSize=8;" vertex="1" parent="1">
          <mxGeometry x="421" y="240" width="20" height="10" as="geometry" />
        </mxCell>
        <mxCell id="DSYd0_VyeAYdbBnq_1hp-28" value="" style="endArrow=classic;html=1;rounded=0;" edge="1" parent="1">
          <mxGeometry width="50" height="50" relative="1" as="geometry">
            <mxPoint x="437" y="254" as="sourcePoint" />
            <mxPoint x="454" y="254" as="targetPoint" />
          </mxGeometry>
        </mxCell>
        <mxCell id="DSYd0_VyeAYdbBnq_1hp-35" value="" style="edgeStyle=segmentEdgeStyle;endArrow=classic;html=1;curved=0;rounded=0;endSize=8;startSize=8;" edge="1" parent="1">
          <mxGeometry width="50" height="50" relative="1" as="geometry">
            <mxPoint x="500" y="290" as="sourcePoint" />
            <mxPoint x="560" y="420" as="targetPoint" />
          </mxGeometry>
        </mxCell>
        <mxCell id="DSYd0_VyeAYdbBnq_1hp-36" value="&lt;p style=&quot;margin:0px;margin-top:6px;text-align:center;&quot;&gt;&lt;b&gt;seeker data&lt;/b&gt;&lt;/p&gt;&lt;hr size=&quot;1&quot; style=&quot;border-style:solid;&quot;&gt;&lt;p style=&quot;margin:0px;margin-left:8px;&quot;&gt;+ target relative x angle: angle&lt;br&gt;+&amp;nbsp;target relative x angle: angle&lt;/p&gt;" style="align=left;overflow=fill;html=1;dropTarget=0;whiteSpace=wrap;" vertex="1" parent="1">
          <mxGeometry x="465" y="430" width="180" height="90" as="geometry" />
        </mxCell>
        <mxCell id="DSYd0_VyeAYdbBnq_1hp-37" value="" style="shape=component;jettyWidth=8;jettyHeight=4;" vertex="1" parent="DSYd0_VyeAYdbBnq_1hp-36">
          <mxGeometry x="1" width="20" height="20" relative="1" as="geometry">
            <mxPoint x="-24" y="4" as="offset" />
          </mxGeometry>
        </mxCell>
        <mxCell id="DSYd0_VyeAYdbBnq_1hp-41" value="&lt;p style=&quot;margin:0px;margin-top:6px;text-align:center;&quot;&gt;&lt;b&gt;missile data&lt;/b&gt;&lt;/p&gt;&lt;hr size=&quot;1&quot; style=&quot;border-style:solid;&quot;&gt;&lt;p style=&quot;margin:0px;margin-left:8px;&quot;&gt;+ orientation: basis&lt;br&gt;+ velocity: m/s&lt;br&gt;+ distance: m&lt;/p&gt;" style="align=left;overflow=fill;html=1;dropTarget=0;whiteSpace=wrap;" vertex="1" parent="1">
          <mxGeometry x="-60" y="430" width="180" height="90" as="geometry" />
        </mxCell>
        <mxCell id="DSYd0_VyeAYdbBnq_1hp-42" value="" style="shape=component;jettyWidth=8;jettyHeight=4;" vertex="1" parent="DSYd0_VyeAYdbBnq_1hp-41">
          <mxGeometry x="1" width="20" height="20" relative="1" as="geometry">
            <mxPoint x="-24" y="4" as="offset" />
          </mxGeometry>
        </mxCell>
        <mxCell id="DSYd0_VyeAYdbBnq_1hp-43" value="" style="edgeStyle=segmentEdgeStyle;endArrow=classic;html=1;curved=0;rounded=0;endSize=8;startSize=8;exitX=0.009;exitY=0.502;exitDx=0;exitDy=0;exitPerimeter=0;" edge="1" parent="1" source="DSYd0_VyeAYdbBnq_1hp-10">
          <mxGeometry width="50" height="50" relative="1" as="geometry">
            <mxPoint x="240" y="180" as="sourcePoint" />
            <mxPoint x="30" y="420" as="targetPoint" />
          </mxGeometry>
        </mxCell>
        <mxCell id="DSYd0_VyeAYdbBnq_1hp-44" value="" style="endArrow=classic;html=1;rounded=0;exitX=0.5;exitY=0;exitDx=0;exitDy=0;" edge="1" parent="1" source="DSYd0_VyeAYdbBnq_1hp-47">
          <mxGeometry width="50" height="50" relative="1" as="geometry">
            <mxPoint x="300" y="420" as="sourcePoint" />
            <mxPoint x="300" y="190" as="targetPoint" />
          </mxGeometry>
        </mxCell>
        <mxCell id="DSYd0_VyeAYdbBnq_1hp-47" value="&lt;p style=&quot;margin:0px;margin-top:6px;text-align:center;&quot;&gt;&lt;b&gt;canards&lt;/b&gt;&lt;/p&gt;&lt;hr size=&quot;1&quot; style=&quot;border-style:solid;&quot;&gt;&lt;p style=&quot;margin:0px;margin-left:8px;&quot;&gt;+ pitch: torque&lt;br&gt;+ yaw: torque&lt;br&gt;+ roll: torque&lt;/p&gt;" style="align=left;overflow=fill;html=1;dropTarget=0;whiteSpace=wrap;" vertex="1" parent="1">
          <mxGeometry x="210" y="430" width="180" height="90" as="geometry" />
        </mxCell>
        <mxCell id="DSYd0_VyeAYdbBnq_1hp-48" value="" style="shape=component;jettyWidth=8;jettyHeight=4;" vertex="1" parent="DSYd0_VyeAYdbBnq_1hp-47">
          <mxGeometry x="1" width="20" height="20" relative="1" as="geometry">
            <mxPoint x="-24" y="4" as="offset" />
          </mxGeometry>
        </mxCell>
        <mxCell id="DSYd0_VyeAYdbBnq_1hp-49" value="&lt;h1 style=&quot;margin-top: 0px;&quot;&gt;Guidance preusudo code&lt;/h1&gt;&lt;p&gt;How the missile works... dumbass&lt;/p&gt;" style="text;html=1;whiteSpace=wrap;overflow=hidden;rounded=0;" vertex="1" parent="1">
          <mxGeometry x="50" width="300" height="120" as="geometry" />
        </mxCell>
        <mxCell id="DSYd0_VyeAYdbBnq_1hp-52" value="PID stabilization" style="html=1;whiteSpace=wrap;" vertex="1" parent="1">
          <mxGeometry x="250" y="560" width="100" height="30" as="geometry" />
        </mxCell>
        <mxCell id="DSYd0_VyeAYdbBnq_1hp-53" value="control algorithm" style="html=1;whiteSpace=wrap;fontSize=25;" vertex="1" parent="1">
          <mxGeometry x="172.5" y="630" width="255" height="140" as="geometry" />
        </mxCell>
        <mxCell id="DSYd0_VyeAYdbBnq_1hp-54" value="" style="endArrow=classic;html=1;rounded=0;" edge="1" parent="1">
          <mxGeometry width="50" height="50" relative="1" as="geometry">
            <mxPoint x="299.89" y="550" as="sourcePoint" />
            <mxPoint x="299.89" y="530" as="targetPoint" />
          </mxGeometry>
        </mxCell>
        <mxCell id="DSYd0_VyeAYdbBnq_1hp-55" value="" style="endArrow=classic;html=1;rounded=0;" edge="1" parent="1">
          <mxGeometry width="50" height="50" relative="1" as="geometry">
            <mxPoint x="299.89" y="620" as="sourcePoint" />
            <mxPoint x="299.89" y="600" as="targetPoint" />
          </mxGeometry>
        </mxCell>
        <mxCell id="DSYd0_VyeAYdbBnq_1hp-56" value="" style="edgeStyle=segmentEdgeStyle;endArrow=classic;html=1;curved=0;rounded=0;endSize=8;startSize=8;" edge="1" parent="1">
          <mxGeometry width="50" height="50" relative="1" as="geometry">
            <mxPoint x="560" y="530" as="sourcePoint" />
            <mxPoint x="441" y="710" as="targetPoint" />
            <Array as="points">
              <mxPoint x="561" y="710" />
            </Array>
          </mxGeometry>
        </mxCell>
        <mxCell id="DSYd0_VyeAYdbBnq_1hp-57" value="" style="edgeStyle=segmentEdgeStyle;endArrow=classic;html=1;curved=0;rounded=0;endSize=8;startSize=8;" edge="1" parent="1">
          <mxGeometry width="50" height="50" relative="1" as="geometry">
            <mxPoint x="30" y="525" as="sourcePoint" />
            <mxPoint x="240" y="575" as="targetPoint" />
            <Array as="points">
              <mxPoint x="30" y="545" />
              <mxPoint x="30" y="575" />
            </Array>
          </mxGeometry>
        </mxCell>
        <mxCell id="DSYd0_VyeAYdbBnq_1hp-58" value="" style="edgeStyle=segmentEdgeStyle;endArrow=classic;html=1;curved=0;rounded=0;endSize=8;startSize=8;" edge="1" parent="1">
          <mxGeometry width="50" height="50" relative="1" as="geometry">
            <mxPoint x="30" y="570" as="sourcePoint" />
            <mxPoint x="160" y="710" as="targetPoint" />
            <Array as="points">
              <mxPoint x="30" y="680" />
              <mxPoint x="30" y="710" />
            </Array>
          </mxGeometry>
        </mxCell>
      </root>
    </mxGraphModel>
  </diagram>
</mxfile>
